<svg id="Layer_1" data-name="Layer 1" xmlns="http://www.w3.org/2000/svg" viewBox="0 0 500 500"><defs><style>.cls-1{fill:#96257e;}.cls-2{fill:#fff;}</style></defs><title>logo</title><path class="cls-1" d="M450,272c-3.4,82.38-38.4,141.66-107.88,179.6-35.05,19.14-73.2,26.73-112.64,22-42.76-5.16-81-21.88-113.34-51.42-24.27-22.19-41.76-48.9-53.13-79.21C53.5,317.42,48.41,290.35,51,263.05c6.39-67.78,38.16-120.92,95.14-158.63,1.6-1.06,3.76-1.28,5.39-2.31,9.51-6,18.19-10.19,23-23.59C188.23,40.65,218,24.37,253.43,25c31,.56,62.41,19.49,73.43,54.47,2.17,6.9,4.81,13,12.77,17.09,34.71,17.84,62.43,43.59,82.4,77.4,11.33,19.18,19.69,39.46,23.14,61.54C447.24,248.74,448.73,262,450,272ZM365.77,309.5l1.72-.09c-1.71-29.44-2.27-59-5.51-88.27-2.31-20.86-13.9-37-32.89-47.78-20.55-11.61-43.17-8.48-64.93-9.74-25.37-1.47-50.92.46-76.38,0-8.45-.15-11.23,2.81-11.15,10.54.13,11.85-.07,23.7,0,35.55.21,22.46-1.81,20.26,19.21,19.87,5.47-.11,8.64,1.06,8.58,7.49q-.39,38.5-.14,77c.06,8.35-4.81,12.95-11.65,13-7.54.06-12.23-5.41-12.29-13.63s-.34-16.46-.1-24.68c.17-5.68-1.62-8.59-7.77-8.53-17.44.17-34.89.14-52.33,0-5.48,0-7.87,2.29-7.46,7.7,1.43,18.51,1.4,37.28,4.68,55.45,2.72,15.06,11.44,27.78,24.34,37.4,10.1,7.53,21.29,10.5,33.35,12.58,25.17,4.32,48.11-.58,68.4-15.8,25-18.72,29.51-46.45,30.71-75,.85-20.38.39-40.81.46-61.21,0-6.16,3.37-10.86,8.94-10.79,3.86,0,9.14,3.41,11.13,6.83,2.6,4.5,3.51,10.51,3.55,15.88q.39,63.19,0,126.4c-.06,8.47,2.57,11.91,11.32,11.59,14.47-.52,29-.51,43.44-.07,9.3.28,13-3.3,12.87-12.66C365.54,355.58,365.77,332.54,365.77,309.5ZM251,139.48c17.53,2.32,33.64-16.91,32.91-32.32-1.08-22.84-17.37-34-34.79-34.81-15.71-.73-33.5,18-32.82,34.1C217,121.54,227.65,140.83,251,139.48Z"/><path class="cls-2" d="M365.77,309.5c0,23-.23,46.08.12,69.12.14,9.36-3.57,12.94-12.87,12.66-14.47-.44-29-.45-43.44.07-8.75.32-11.38-3.12-11.32-11.59q.47-63.19,0-126.4c0-5.37-.95-11.38-3.55-15.88-2-3.42-7.27-6.78-11.13-6.83-5.57-.07-8.91,4.63-8.94,10.79-.07,20.4.39,40.83-.46,61.21-1.2,28.52-5.75,56.25-30.71,75-20.29,15.22-43.23,20.12-68.4,15.8-12.06-2.08-23.25-5.05-33.35-12.58-12.9-9.62-21.62-22.34-24.34-37.4-3.28-18.17-3.25-36.94-4.68-55.45-.41-5.41,2-7.74,7.46-7.7,17.44.13,34.89.16,52.33,0,6.15-.06,7.94,2.85,7.77,8.53-.24,8.22.05,16.45.1,24.68s4.75,13.69,12.29,13.63c6.84-.05,11.71-4.65,11.65-13q-.3-38.5.14-77c.06-6.43-3.11-7.6-8.58-7.49-21,.39-19,2.59-19.21-19.87-.11-11.85.09-23.7,0-35.55-.08-7.73,2.7-10.69,11.15-10.54,25.46.43,51-1.5,76.38,0,21.76,1.26,44.38-1.87,64.93,9.74,19,10.73,30.58,26.92,32.89,47.78,3.24,29.27,3.8,58.83,5.51,88.27Z"/><path class="cls-2" d="M251,139.48c-23.36,1.35-34.06-17.94-34.7-33-.68-16.1,17.11-34.83,32.82-34.1,17.42.8,33.71,12,34.79,34.81C284.65,122.57,268.54,141.8,251,139.48Z"/></svg>